<svg xmlns="http://www.w3.org/2000/svg" width="57" height="200" viewBox="0 0 57 200">
  	<path fill="#FFF" fill-rule="evenodd" d="M13.006 20.872c-.87 0-1.74-.589-1.74-1.8v-7.615h-7.79v7.614c0 1.212-.87 1.8-1.739 1.8-.868 0-1.737-.588-1.737-1.8V1.801C0 .587.87 0 1.737 0c.87 0 1.738.587 1.738 1.8v6.195h7.79V1.801c0-1.214.871-1.801 1.74-1.801.87 0 1.74.587 1.74 1.8v17.271c0 1.212-.87 1.8-1.74 1.8zm17.179-.208h-3.861c-2.886 0-5.285-1.973-5.39-5.158v-.07c0-1.004.73-1.73 1.738-1.73.836 0 1.705.554 1.739 1.662.035 1.21.73 1.87 1.913 1.87h3.86c1.254 0 1.915-.624 1.915-1.94 0-.033.034-.519.034-1.038 0-.622-.034-1.35-.139-1.627-.244-.449-1.113-.796-3.756-.796-4.487 0-7.304-.97-7.304-5.814V5.47c0-3.219 2.4-5.296 5.39-5.296h3.756c3.061 0 5.357 2.006 5.357 5.122 0 1.11-.87 1.696-1.738 1.696-.8 0-1.637-.519-1.705-1.591-.105-1.282-.556-1.801-1.914-1.801h-3.756c-1.183 0-1.913.659-1.913 1.87v.554c0 .76.105 1.315.244 1.626.349.52 1.218.76 3.583.76 4.556 0 7.34 1.005 7.34 5.229v1.66c0 3.288-2.333 5.366-5.393 5.366zm24.762 0H44.13c-.905 0-1.739-.83-1.739-1.732V1.87c0-.9.834-1.73 1.739-1.73h10.468c1.148 0 1.739.865 1.739 1.73s-.591 1.696-1.739 1.696H45.87V8.55h3.582c1.149 0 1.74.865 1.74 1.732 0 .865-.591 1.73-1.74 1.73H45.87v5.226h9.077c1.148 0 1.74.83 1.74 1.695 0 .867-.592 1.732-1.74 1.732zM11.13 49.307l-.733-3.946h-6.12s-.73 3.462-.834 3.981c-.211.934-.939 1.35-1.67 1.35-.87 0-1.773-.623-1.773-1.662 0-.138 0-.31.033-.45l3.514-15.886c.417-1.905 1.913-2.804 3.93-2.804 2.364 0 3.41 1.072 3.93 2.804 0 0 2.087 10.625 3.095 15.955.035.14.035.277.035.416 0 1.038-.904 1.661-1.773 1.661-.73 0-1.461-.45-1.634-1.42zM32.9 41.45l2.364 6.99c.07.21.104.416.104.624 0 1.003-.905 1.66-1.81 1.66-.659 0-1.287-.311-1.564-1.14l-2.54-7.442h-5.043v6.853c0 1.143-.87 1.73-1.738 1.73-.87 0-1.74-.587-1.74-1.73V31.793c0-.899.835-1.73 1.74-1.73h7.477c3.063 0 5.39 2.042 5.39 5.365v1.35c0 2.214-1.041 3.841-2.64 4.673zm22.118-7.962h-4.175v15.507c0 1.143-.87 1.73-1.74 1.73s-1.738-.587-1.738-1.73V33.489h-4.173c-1.148 0-1.739-.83-1.739-1.696 0-.865.591-1.73 1.739-1.73h11.826c1.147 0 1.74.865 1.74 1.73 0 .866-.593 1.696-1.74 1.696zM12.764 80.615c-.73 0-1.461-.449-1.634-1.418l-.733-3.947h-6.12s-.73 3.461-.834 3.98c-.211.936-.939 1.35-1.67 1.35-.87 0-1.773-.623-1.773-1.66 0-.14 0-.312.033-.452l3.514-15.886c.417-1.905 1.913-2.804 3.93-2.804 2.364 0 3.41 1.073 3.93 2.804 0 0 2.087 10.626 3.095 15.957.035.138.035.275.035.415 0 1.037-.904 1.66-1.773 1.66zm20.9-.139h-1.392c-.417 0-1.323-.484-1.565-.97l-6.122-13.151.036 12.53c0 1.142-.87 1.73-1.74 1.73s-1.738-.588-1.738-1.73V61.682c0-.902.835-1.732 1.738-1.732h1.391c.418 0 1.357.484 1.564.97l6.123 13.22-.036-12.563c0-1.143.871-1.73 1.74-1.73.87 0 1.74.587 1.74 1.73v17.168c0 .9-.835 1.73-1.74 1.73zm17.458-.034h-7.548c-.905 0-1.739-.831-1.739-1.731V61.683c0-.902.834-1.732 1.739-1.732h7.548c3.061 0 5.39 2.044 5.39 5.365v9.76c0 3.323-2.329 5.366-5.39 5.366zM9.39 110.331H1.842c-.905 0-1.739-.83-1.739-1.73V91.57c0-.9.834-1.73 1.739-1.73H9.39c3.061 0 5.39 2.042 5.39 5.366v9.76c0 3.322-2.329 5.364-5.39 5.364zm24.692 0H23.264c-.906 0-1.739-.83-1.739-1.73V91.537c0-.9.833-1.73 1.739-1.73h10.469c1.147 0 1.738.864 1.738 1.73 0 .865-.591 1.697-1.738 1.697h-8.73v4.984h3.583c1.148 0 1.74.865 1.74 1.731 0 .865-.592 1.73-1.74 1.73h-3.582v5.225h9.078c1.147 0 1.74.832 1.74 1.697 0 .866-.593 1.73-1.74 1.73zm16.97 0H47.19c-2.885 0-5.284-1.972-5.39-5.157v-.069c0-1.003.73-1.731 1.74-1.731.834 0 1.704.554 1.739 1.662.034 1.21.729 1.868 1.911 1.868h3.862c1.253 0 1.914-.622 1.914-1.937 0-.034.032-.518.032-1.039 0-.623-.032-1.35-.137-1.625-.244-.45-1.113-.797-3.758-.797-4.485 0-7.302-.97-7.302-5.816v-.553c0-3.219 2.399-5.296 5.39-5.296h3.757c3.06 0 5.356 2.007 5.356 5.123 0 1.109-.87 1.696-1.739 1.696-.8 0-1.636-.52-1.704-1.592-.105-1.281-.556-1.8-1.913-1.8H47.19c-1.182 0-1.911.658-1.911 1.87v.552c0 .764.105 1.317.242 1.627.35.52 1.218.762 3.582.762 4.558 0 7.341 1.004 7.341 5.226v1.662c0 3.288-2.332 5.364-5.392 5.364zm-39.158 29.89H2.85c-1.215 0-1.807-.866-1.807-1.732 0-.865.592-1.695 1.807-1.695h2.783v-13.637H2.85c-1.215 0-1.807-.833-1.807-1.698s.592-1.73 1.807-1.73h9.044c1.216 0 1.808.865 1.808 1.73s-.592 1.698-1.808 1.698H9.112v13.637h2.782c1.216 0 1.808.83 1.808 1.695 0 .866-.592 1.731-1.808 1.731zm18.361 0H26.43c-2.958 0-5.391-2.007-5.391-5.367v-9.76c0-3.357 2.433-5.365 5.39-5.365h3.826c2.747 0 5.009 1.698 5.322 4.605 0 .102.034.207.034.275 0 1.073-.903 1.662-1.774 1.662-.765 0-1.565-.485-1.669-1.487-.106-1.04-.696-1.627-1.913-1.627H26.43c-1.22 0-1.915.656-1.915 1.938v9.759c0 1.281.695 1.94 1.915 1.94h3.825c1.287 0 1.913-.622 1.913-1.94v-2.63H29.56c-1.147 0-1.74-.864-1.74-1.73s.593-1.73 1.74-1.73h4.348c.904 0 1.738.832 1.738 1.73v4.36c0 3.324-2.33 5.366-5.39 5.366zm24.275.032h-1.39c-.418 0-1.324-.482-1.566-.968l-6.122-13.151.036 12.53c0 1.14-.87 1.73-1.74 1.73s-1.739-.59-1.739-1.73V121.46c0-.899.836-1.731 1.739-1.731h1.39c.42 0 1.358.485 1.565.97l6.123 13.221-.036-12.563c0-1.143.87-1.73 1.74-1.73s1.739.587 1.739 1.73v17.168c0 .899-.834 1.728-1.739 1.728zM9.32 170.11H5.458c-2.885 0-5.284-1.973-5.39-5.156v-.07c0-1.006.73-1.73 1.74-1.73.834 0 1.703.554 1.739 1.661.034 1.21.729 1.869 1.911 1.869H9.32c1.253 0 1.914-.623 1.914-1.94 0-.033.032-.518.032-1.036 0-.624-.032-1.35-.137-1.629-.244-.45-1.113-.794-3.756-.794-4.487 0-7.304-.97-7.304-5.815v-.555c0-3.219 2.399-5.296 5.39-5.296h3.756c3.062 0 5.357 2.008 5.357 5.123 0 1.109-.87 1.696-1.739 1.696-.8 0-1.636-.52-1.704-1.59-.105-1.283-.556-1.801-1.914-1.801H5.458c-1.182 0-1.911.659-1.911 1.868v.555c0 .76.103 1.315.242 1.625.35.52 1.218.76 3.584.76 4.556 0 7.34 1.007 7.34 5.229v1.66c0 3.29-2.333 5.366-5.393 5.366zm24.622-13.844c-.8 0-1.635-.485-1.703-1.524-.105-1.072-.663-1.695-1.915-1.695H26.5c-1.218 0-1.915.66-1.915 1.938v9.76c0 1.28.697 1.94 1.915 1.94h3.825c1.252 0 1.81-.624 1.915-1.698.068-1.037.903-1.521 1.703-1.521.869 0 1.74.622 1.74 1.694 0 .174 0 .31-.037.484-.38 2.876-2.608 4.467-5.32 4.467h-3.826c-2.957 0-5.356-2.044-5.356-5.367v-9.76c0-3.32 2.4-5.366 5.356-5.366h3.825c2.713 0 4.94 1.594 5.32 4.465.038.177.038.312.038.488 0 1.073-.871 1.695-1.74 1.695zm20.796 14.053c-.87 0-1.74-.59-1.74-1.799v-7.616h-7.79v7.616c0 1.21-.87 1.8-1.739 1.8-.87 0-1.738-.59-1.738-1.8v-17.273c0-1.212.867-1.8 1.738-1.8.87 0 1.739.588 1.739 1.8v6.196h7.79v-6.196c0-1.212.87-1.8 1.74-1.8.869 0 1.74.588 1.74 1.8v17.273c0 1.21-.871 1.8-1.74 1.8zM9.284 200H5.46c-2.955 0-5.392-2.043-5.392-5.364v-9.762c0-3.321 2.437-5.363 5.392-5.363h3.825c3.063 0 5.392 2.042 5.392 5.363v9.762c0 3.32-2.329 5.364-5.392 5.364zm20.866 0h-3.826c-2.955 0-5.391-2.043-5.391-5.364v-9.762c0-3.321 2.436-5.363 5.391-5.363h3.826c3.063 0 5.39 2.042 5.39 5.363v9.762c0 3.32-2.327 5.364-5.39 5.364zm25.04 0H43.888c-.904 0-1.739-.83-1.739-1.732v-17.13c0-1.214.87-1.801 1.739-1.801.87 0 1.74.587 1.74 1.8v15.436h9.564c1.216 0 1.809.83 1.809 1.695 0 .867-.593 1.732-1.81 1.732zm-43.993-15.126c0-1.315-.66-1.937-1.913-1.937H5.46c-1.216 0-1.913.659-1.913 1.937v9.762c0 1.279.697 1.938 1.913 1.938h3.825c1.254 0 1.913-.622 1.913-1.938v-9.762zm20.866 0c0-1.315-.661-1.937-1.913-1.937h-3.826c-1.215 0-1.913.659-1.913 1.937v9.762c0 1.279.698 1.938 1.913 1.938h3.826c1.252 0 1.913-.622 1.913-1.938v-9.762zM8.208 63.585c-.071-.311-.244-.45-.661-.45-.419 0-.626.07-.695.45L5.007 71.79h4.766l-1.565-8.205zm44.827 1.731c0-1.315-.663-1.939-1.913-1.939h-5.808v13.639h5.808c1.25 0 1.913-.624 1.913-1.94v-9.76zm-41.733 29.89c0-1.316-.662-1.938-1.912-1.938H3.582v13.637H9.39c1.25 0 1.912-.623 1.912-1.938v-9.76zM8.208 33.698c-.071-.312-.244-.45-.661-.45-.419 0-.626.07-.695.45L5.007 41.9h4.766l-1.565-8.203zm23.855 1.73c0-1.316-.661-1.938-1.913-1.938H24.41v5.193h5.739c1.252 0 1.913-.59 1.913-1.904v-1.35z"/>
</svg>
